# xmcd
#
# Track frame offsets: 
#        150
#        13146
#        31978
#        47447
#        64380
#        77735
#        93230
#        112552
#        133339
#        154832
#
# Disc length: 2382 seconds
#
# Revision: 0
# Processed by: cddbd v1.5.2PL0 Copyright (c) Steve Scherf et al.
# Submitted via: ExactAudioCopy v0.99pb4
#
DISCID=77094c0a
DTITLE=The Gentlemen's Blues Club - Shotgun Wedding
DYEAR=2007
DGENRE=Blues
TTITLE0=Dust Broom
TTITLE1=Shotgun Wedding
TTITLE2=Like the Thorn Protects the Rose
TTITLE3=The Bastard
TTITLE4=Living at the Aztec Hotel
TTITLE5=Lyndell Shuffle
TTITLE6=Whipping Post
TTITLE7=The Gift of Life
TTITLE8=White Room
TTITLE9=Miser Blues
EXTD=
EXTT0=
EXTT1=
EXTT2=
EXTT3=
EXTT4=
EXTT5=
EXTT6=
EXTT7=
EXTT8=
EXTT9=
PLAYORDER=
